<?xml version="1.0" encoding="utf-8"?>
<!-- Generator: Adobe Illustrator 21.0.0, SVG Export Plug-In . SVG Version: 6.00 Build 0)  -->
<svg version="1.1" id="Layer_1" xmlns="http://www.w3.org/2000/svg" xmlns:xlink="http://www.w3.org/1999/xlink" x="0px" y="0px"
	 viewBox="0 0 1162 378" style="enable-background:new 0 0 1162 378;" xml:space="preserve">
<style type="text/css">
	.st0{fill:#EBFFFC;}
</style>
<g id="background">
</g>
<g id="frontClouds">
</g>
<g id="backClouds">
	<g>
		<g>
			<g>
				<circle class="st0" cx="45.5" cy="167.5" r="43.5"/>
			</g>
			<ellipse class="st0" cx="110" cy="208.5" rx="58" ry="38.5"/>
			<ellipse class="st0" cx="168.5" cy="167" rx="83.5" ry="28"/>
			<circle class="st0" cx="189" cy="132" r="35"/>
		</g>
		<g>
			<ellipse class="st0" cx="553" cy="181" rx="127" ry="39"/>
			<ellipse class="st0" cx="498" cy="147" rx="50" ry="47"/>
			<ellipse class="st0" cx="652" cy="162.5" rx="39" ry="34.5"/>
		</g>
		<g>
			<g>
				<ellipse class="st0" cx="894.5" cy="92.2" rx="73.5" ry="86.2"/>
				<ellipse class="st0" cx="979" cy="135.1" rx="69" ry="46.9"/>
				<ellipse class="st0" cx="1101.5" cy="113.4" rx="55.5" ry="65.1"/>
				<ellipse class="st0" cx="1047" cy="102.2" rx="43" ry="50.5"/>
			</g>
			<circle class="st0" cx="966.5" cy="106.5" r="48.5"/>
		</g>
		<g>
			<g>
				
					<ellipse transform="matrix(3.163105e-02 -0.9995 0.9995 3.163105e-02 61.3043 679.543)" class="st0" cx="381.3" cy="308.1" rx="43.5" ry="43.5"/>
			</g>
			
				<ellipse transform="matrix(3.163105e-02 -0.9995 0.9995 3.163105e-02 43.1621 574.7333)" class="st0" cx="318.2" cy="265.1" rx="38.5" ry="58"/>
			
				<ellipse transform="matrix(3.163105e-02 -0.9995 0.9995 3.163105e-02 -54.312 553.1926)" class="st0" cx="258.3" cy="304.6" rx="28" ry="83.5"/>
			
				<ellipse transform="matrix(3.163105e-02 -0.9995 0.9995 3.163105e-02 -109.5891 564.9528)" class="st0" cx="236.8" cy="339" rx="35" ry="35"/>
		</g>
		<g>
			
				<ellipse transform="matrix(2.781047e-03 -1 1 2.781047e-03 450.5395 997.6376)" class="st0" cx="725.5" cy="272.9" rx="48.1" ry="156.6"/>
			
				<ellipse transform="matrix(2.781047e-03 -1 1 2.781047e-03 475.8641 1107.3888)" class="st0" cx="793.2" cy="315.1" rx="57.9" ry="61.6"/>
			
				<ellipse transform="matrix(2.781047e-03 -1 1 2.781047e-03 306.1696 898.0118)" class="st0" cx="603.3" cy="295.5" rx="42.5" ry="48.1"/>
		</g>
	</g>
</g>
<g id="middleClouds">
</g>
<circle class="st0" cx="553" cy="142" r="21.8"/>
<circle class="st0" cx="593.2" cy="173.1" r="38"/>
<circle class="st0" cx="116.5" cy="152.7" r="31.5"/>
<circle class="st0" cx="207.9" cy="286" r="33"/>
<circle class="st0" cx="252" cy="276.5" r="17.5"/>
<circle class="st0" cx="296.4" cy="303.6" r="49.6"/>
<circle class="st0" cx="189" cy="181" r="36"/>
<circle class="st0" cx="224" cy="163.8" r="30.4"/>
<circle class="st0" cx="583.2" cy="275" r="28"/>
<circle class="st0" cx="621.2" cy="258" r="28"/>
<circle class="st0" cx="778.9" cy="239.1" r="28"/>
<circle class="st0" cx="838.1" cy="247" r="39.4"/>
<circle class="st0" cx="674.3" cy="308.1" r="34.9"/>
<circle class="st0" cx="830.9" cy="87.1" r="51.9"/>
<circle class="st0" cx="661.2" cy="254" r="34.9"/>
<circle class="st0" cx="724" cy="247" r="34.9"/>
</svg>
