<?xml version="1.0" encoding="utf-8"?>
<!-- Generator: Adobe Illustrator 21.0.0, SVG Export Plug-In . SVG Version: 6.00 Build 0)  -->
<svg version="1.1" xmlns="http://www.w3.org/2000/svg" xmlns:xlink="http://www.w3.org/1999/xlink" x="0px" y="0px"
	 viewBox="0 0 1465 632" style="enable-background:new 0 0 1465 632;" xml:space="preserve">
<style type="text/css">
	.st0{fill:#BBEEFF;}
	.st1{fill:#FFFFFF;}
	.st2{fill:#EBFFFC;}
	.st3{fill:url(#SVGID_1_);}
	.st4{fill:url(#SVGID_2_);}
	.st5{fill:url(#SVGID_3_);}
	.st6{fill:url(#SVGID_4_);}
	.st7{fill:url(#SVGID_5_);}
	.st8{fill:url(#SVGID_6_);}
	.st9{fill:url(#SVGID_7_);}
	.st10{fill:url(#SVGID_8_);}
	.st11{fill:url(#SVGID_9_);}
	.st12{fill:url(#SVGID_10_);}
	.st13{fill:url(#SVGID_11_);}
</style>
<g id="background">
</g>
<g id="frontClouds">
	<g>
		<g>
			<circle class="st1" cx="125.9" cy="133.1" r="83.9"/>
			<ellipse class="st1" cx="210.3" cy="119.6" rx="55.2" ry="60.9"/>
			<ellipse class="st1" cx="353.8" cy="125.9" rx="88.2" ry="83.5"/>
			<ellipse class="st1" cx="265.5" cy="67.8" rx="50.8" ry="59"/>
		</g>
		<g>
			<ellipse class="st1" cx="906.5" cy="147.8" rx="97.5" ry="93.8"/>
			<ellipse class="st1" cx="1006.5" cy="135.3" rx="83.7" ry="71.9"/>
			<ellipse class="st1" cx="1203.2" cy="107.2" rx="130.8" ry="103.2"/>
			<ellipse class="st1" cx="1135.7" cy="208.8" rx="87.8" ry="67.2"/>
		</g>
		<g>
			<circle class="st1" cx="507.6" cy="373.5" r="112.5"/>
			<circle class="st1" cx="600.2" cy="313.3" r="81.6"/>
			<circle class="st1" cx="728.9" cy="258.1" r="91.1"/>
		</g>
		<g>
			<ellipse class="st1" cx="722" cy="540" rx="722" ry="96"/>
		</g>
		<g>
			<circle class="st1" cx="645.9" cy="400.1" r="83.9"/>
			<ellipse class="st1" cx="730.3" cy="386.6" rx="55.2" ry="60.9"/>
			<ellipse class="st1" cx="873.8" cy="392.9" rx="88.2" ry="83.5"/>
			<ellipse class="st1" cx="785.5" cy="334.8" rx="50.8" ry="59"/>
		</g>
		<g>
			<circle class="st1" cx="149.6" cy="508.5" r="112.5"/>
			<circle class="st1" cx="242.2" cy="448.3" r="81.6"/>
			<circle class="st1" cx="370.9" cy="393.1" r="91.1"/>
		</g>
		<g>
			<circle class="st1" cx="804.6" cy="424.5" r="112.5"/>
			<circle class="st1" cx="897.2" cy="364.3" r="81.6"/>
			<circle class="st1" cx="1025.9" cy="309.1" r="91.1"/>
		</g>
		<g>
			<ellipse class="st1" cx="1037.5" cy="437.8" rx="97.5" ry="93.8"/>
			<ellipse class="st1" cx="1137.5" cy="425.3" rx="83.7" ry="71.9"/>
			<ellipse class="st1" cx="1334.2" cy="397.2" rx="130.8" ry="103.2"/>
			<ellipse class="st1" cx="1266.7" cy="498.8" rx="87.8" ry="67.2"/>
		</g>
	</g>
</g>
<g id="backClouds">
</g>
<g id="middleClouds">
</g>
</svg>
